<mxfile host="app.diagrams.net" modified="2020-10-23T11:05:47.617Z" agent="5.0 (Windows NT 10.0; Win64; x64) AppleWebKit/537.36 (KHTML, like Gecko) Chrome/86.0.4240.111 Safari/537.36 Edg/86.0.622.51" etag="-k7_A1SVvrZnb6cyqg23" version="13.8.1" type="github">
  <diagram id="GiysFdw9YnmzrjZ-zMn3" name="Page-1">
    <mxGraphModel dx="1422" dy="914" grid="1" gridSize="10" guides="1" tooltips="1" connect="1" arrows="1" fold="1" page="1" pageScale="1" pageWidth="850" pageHeight="1100" math="0" shadow="0">
      <root>
        <mxCell id="0" />
        <mxCell id="1" parent="0" />
        <mxCell id="StKT0LGSQb8zcyLeMCrR-4" style="edgeStyle=orthogonalEdgeStyle;rounded=0;orthogonalLoop=1;jettySize=auto;html=1;entryX=0.596;entryY=0.125;entryDx=0;entryDy=0;entryPerimeter=0;" parent="1" source="StKT0LGSQb8zcyLeMCrR-1" target="StKT0LGSQb8zcyLeMCrR-2" edge="1">
          <mxGeometry relative="1" as="geometry" />
        </mxCell>
        <mxCell id="StKT0LGSQb8zcyLeMCrR-37" style="edgeStyle=orthogonalEdgeStyle;rounded=0;orthogonalLoop=1;jettySize=auto;html=1;entryX=0.4;entryY=1.012;entryDx=0;entryDy=0;entryPerimeter=0;" parent="1" source="StKT0LGSQb8zcyLeMCrR-1" target="StKT0LGSQb8zcyLeMCrR-30" edge="1">
          <mxGeometry relative="1" as="geometry" />
        </mxCell>
        <mxCell id="StKT0LGSQb8zcyLeMCrR-1" value="" style="verticalLabelPosition=bottom;html=1;verticalAlign=top;align=center;strokeColor=none;fillColor=#00BEF2;shape=mxgraph.azure.user;" parent="1" vertex="1">
          <mxGeometry x="110" y="340" width="47.5" height="50" as="geometry" />
        </mxCell>
        <mxCell id="StKT0LGSQb8zcyLeMCrR-5" style="edgeStyle=orthogonalEdgeStyle;rounded=0;orthogonalLoop=1;jettySize=auto;html=1;" parent="1" source="StKT0LGSQb8zcyLeMCrR-2" edge="1">
          <mxGeometry relative="1" as="geometry">
            <mxPoint x="310" y="520" as="targetPoint" />
          </mxGeometry>
        </mxCell>
        <mxCell id="StKT0LGSQb8zcyLeMCrR-2" value="repo" style="shape=cylinder3;whiteSpace=wrap;html=1;boundedLbl=1;backgroundOutline=1;size=15;" parent="1" vertex="1">
          <mxGeometry x="98" y="480" width="62" height="80" as="geometry" />
        </mxCell>
        <mxCell id="StKT0LGSQb8zcyLeMCrR-7" style="edgeStyle=orthogonalEdgeStyle;rounded=0;orthogonalLoop=1;jettySize=auto;html=1;" parent="1" source="StKT0LGSQb8zcyLeMCrR-6" target="StKT0LGSQb8zcyLeMCrR-8" edge="1">
          <mxGeometry relative="1" as="geometry">
            <mxPoint x="620" y="520" as="targetPoint" />
          </mxGeometry>
        </mxCell>
        <mxCell id="StKT0LGSQb8zcyLeMCrR-6" value="API GW Image" style="rounded=1;whiteSpace=wrap;html=1;" parent="1" vertex="1">
          <mxGeometry x="305" y="495" width="120" height="60" as="geometry" />
        </mxCell>
        <mxCell id="StKT0LGSQb8zcyLeMCrR-8" value="ECR/DockerHub/jFrog/" style="shape=cylinder3;whiteSpace=wrap;html=1;boundedLbl=1;backgroundOutline=1;size=15;" parent="1" vertex="1">
          <mxGeometry x="590" y="480" width="140" height="90" as="geometry" />
        </mxCell>
        <mxCell id="StKT0LGSQb8zcyLeMCrR-9" value="API GW Dev Env" style="whiteSpace=wrap;html=1;aspect=fixed;" parent="1" vertex="1">
          <mxGeometry x="210" y="160" width="260" height="260" as="geometry" />
        </mxCell>
        <mxCell id="StKT0LGSQb8zcyLeMCrR-10" value="ELB" style="rounded=1;whiteSpace=wrap;html=1;" parent="1" vertex="1">
          <mxGeometry x="280" y="170" width="90" height="30" as="geometry" />
        </mxCell>
        <mxCell id="StKT0LGSQb8zcyLeMCrR-11" value="Nginx" style="rounded=1;whiteSpace=wrap;html=1;" parent="1" vertex="1">
          <mxGeometry x="280" y="220" width="90" height="30" as="geometry" />
        </mxCell>
        <mxCell id="StKT0LGSQb8zcyLeMCrR-15" style="edgeStyle=orthogonalEdgeStyle;rounded=0;orthogonalLoop=1;jettySize=auto;html=1;" parent="1" source="StKT0LGSQb8zcyLeMCrR-12" target="StKT0LGSQb8zcyLeMCrR-8" edge="1">
          <mxGeometry relative="1" as="geometry" />
        </mxCell>
        <mxCell id="StKT0LGSQb8zcyLeMCrR-12" value="API GW" style="rounded=1;whiteSpace=wrap;html=1;" parent="1" vertex="1">
          <mxGeometry x="230" y="300" width="90" height="40" as="geometry" />
        </mxCell>
        <mxCell id="StKT0LGSQb8zcyLeMCrR-16" style="edgeStyle=orthogonalEdgeStyle;rounded=0;orthogonalLoop=1;jettySize=auto;html=1;entryX=0;entryY=0;entryDx=0;entryDy=30;entryPerimeter=0;" parent="1" source="StKT0LGSQb8zcyLeMCrR-13" target="StKT0LGSQb8zcyLeMCrR-8" edge="1">
          <mxGeometry relative="1" as="geometry" />
        </mxCell>
        <mxCell id="StKT0LGSQb8zcyLeMCrR-13" value="TC" style="rounded=1;whiteSpace=wrap;html=1;" parent="1" vertex="1">
          <mxGeometry x="350" y="300" width="90" height="40" as="geometry" />
        </mxCell>
        <mxCell id="StKT0LGSQb8zcyLeMCrR-17" style="edgeStyle=orthogonalEdgeStyle;rounded=0;orthogonalLoop=1;jettySize=auto;html=1;entryX=0.145;entryY=0;entryDx=0;entryDy=4.35;entryPerimeter=0;" parent="1" source="StKT0LGSQb8zcyLeMCrR-14" target="StKT0LGSQb8zcyLeMCrR-8" edge="1">
          <mxGeometry relative="1" as="geometry" />
        </mxCell>
        <mxCell id="StKT0LGSQb8zcyLeMCrR-14" value="SAG Cloud" style="rounded=1;whiteSpace=wrap;html=1;" parent="1" vertex="1">
          <mxGeometry x="280" y="360" width="90" height="40" as="geometry" />
        </mxCell>
        <mxCell id="StKT0LGSQb8zcyLeMCrR-38" value="" style="group" parent="1" vertex="1" connectable="0">
          <mxGeometry x="30" y="10" width="190" height="180" as="geometry" />
        </mxCell>
        <mxCell id="StKT0LGSQb8zcyLeMCrR-30" value="API GW local Dev envirement" style="whiteSpace=wrap;html=1;aspect=fixed;" parent="StKT0LGSQb8zcyLeMCrR-38" vertex="1">
          <mxGeometry width="170" height="170" as="geometry" />
        </mxCell>
        <mxCell id="StKT0LGSQb8zcyLeMCrR-31" value="ELB" style="rounded=1;whiteSpace=wrap;html=1;" parent="StKT0LGSQb8zcyLeMCrR-38" vertex="1">
          <mxGeometry x="51.15384615384615" y="6.9230769230769225" width="65.76923076923077" height="20.76923076923077" as="geometry" />
        </mxCell>
        <mxCell id="StKT0LGSQb8zcyLeMCrR-32" value="Nginx" style="rounded=1;whiteSpace=wrap;html=1;" parent="StKT0LGSQb8zcyLeMCrR-38" vertex="1">
          <mxGeometry x="51.15384615384615" y="41.53846153846154" width="65.76923076923077" height="20.76923076923077" as="geometry" />
        </mxCell>
        <mxCell id="StKT0LGSQb8zcyLeMCrR-33" value="API GW" style="rounded=1;whiteSpace=wrap;html=1;" parent="StKT0LGSQb8zcyLeMCrR-38" vertex="1">
          <mxGeometry x="14.615384615384615" y="96.92307692307692" width="65.76923076923077" height="27.69230769230769" as="geometry" />
        </mxCell>
        <mxCell id="StKT0LGSQb8zcyLeMCrR-34" value="TC" style="rounded=1;whiteSpace=wrap;html=1;" parent="StKT0LGSQb8zcyLeMCrR-38" vertex="1">
          <mxGeometry x="102.3076923076923" y="96.92307692307692" width="65.76923076923077" height="27.69230769230769" as="geometry" />
        </mxCell>
        <mxCell id="StKT0LGSQb8zcyLeMCrR-35" value="SAG Cloud" style="rounded=1;whiteSpace=wrap;html=1;" parent="StKT0LGSQb8zcyLeMCrR-38" vertex="1">
          <mxGeometry x="51.15384615384615" y="138.46153846153842" width="65.76923076923077" height="27.69230769230769" as="geometry" />
        </mxCell>
        <mxCell id="greVf-_5AgqA9n_BhIaS-1" value="Text" style="text;html=1;strokeColor=none;fillColor=none;align=center;verticalAlign=middle;whiteSpace=wrap;rounded=0;" vertex="1" parent="1">
          <mxGeometry x="400" y="460" width="40" height="20" as="geometry" />
        </mxCell>
        <mxCell id="greVf-_5AgqA9n_BhIaS-2" value="API GW Dev setup" style="text;html=1;strokeColor=none;fillColor=none;align=center;verticalAlign=middle;whiteSpace=wrap;rounded=0;" vertex="1" parent="1">
          <mxGeometry x="240" y="20" width="280" height="30" as="geometry" />
        </mxCell>
      </root>
    </mxGraphModel>
  </diagram>
</mxfile>
